# xmcd
# 
# Track frame offsets:
#     150
#     21813
#     49717
#     62533
#     81446
#     106799
#     122322
#     138774
#     157530
#     179778
#     203583
# 
# Disc length: 2845
# 
# Revision: 17
# Processed by: cddbd v1.5.2PL0 Copyright (c) Steve Scherf et al.
# Submitted via: fre:ac v1.1beta1pre5
# 
DISCID=7f0b1b0b
DTITLE=Pink Martini - Sympathique
DYEAR=1999
DGENRE=Jazz
TTITLE0=Amado mio
TTITLE1=No Hay Problema
TTITLE2=Sympathique
TTITLE3=Que Sera Sera
TTITLE4=La Soledad
TTITLE5=Donde Estas, Yolanda?
TTITLE6=Andalucia
TTITLE7=Song of the Black Lizard
TTITLE8=Never on Sunday
TTITLE9=Brazil
TTITLE10=Lullaby
EXTD=YEAR: 1999
EXTT0=
EXTT1=
EXTT2=
EXTT3=
EXTT4=
EXTT5=
EXTT6=
EXTT7=
EXTT8=
EXTT9=
EXTT10=
PLAYORDER=
